<?xml version="1.0" encoding="UTF-8"?>
<svg xmlns="http://www.w3.org/2000/svg" version="1.1" viewBox="0 0 500 500">
  <!-- Generator: Adobe Illustrator 30.1.0, SVG Export Plug-In . SVG Version: 2.1.1 Build 136)  -->
  <defs>
    <style>
      .st0 {
        fill: #2e7a6e;
      }

      .st1 {
        fill: #1a3a38;
      }

      .st2 {
        fill: #1a2c2a;
      }

      .st3 {
        fill: #1a3b2e;
      }

      .st4 {
        fill: #162620;
      }

      .st5 {
        fill: #1dab8a;
      }

      .st6 {
        fill: #1e5c48;
      }

      .st7 {
        fill: #1a4d3c;
      }

      .st8 {
        fill: #1e5240;
      }

      .st9 {
        fill: #2e8a6a;
      }

      .st10 {
        fill: #17c497;
      }

      .st11 {
        fill: #7de89a;
      }

      .st12 {
        fill: #2e9970;
      }

      .st13 {
        fill: #6de08a;
      }

      .st14 {
        fill: #a8f0b8;
      }

      .st15 {
        fill: #0d1f1d;
      }

      .st16 {
        fill: #9aeaaa;
      }

      .st17 {
        fill: #1e4a42;
      }

      .st18 {
        fill: #020d0c;
      }

      .st19 {
        fill: #1a9977;
      }

      .st20 {
        fill: #17b890;
      }

      .st21 {
        fill: #182820;
      }

      .st22 {
        fill: #1a3d2e;
      }

      .st23 {
        fill: #1a4f38;
      }

      .st24 {
        fill: #14c298;
      }

      .st25 {
        fill: #1aaa80;
      }

      .st26 {
        fill: #5de87a;
      }

      .st27 {
        fill: #b0f5c0;
      }

      .st28 {
        fill: #031310;
      }

      .st29 {
        fill: #20d4a0;
      }

      .st30 {
        fill: #121f1e;
      }

      .st31 {
        fill: #162e28;
      }

      .st32 {
        fill: #0f1e1c;
      }

      .st33 {
        fill: #1c4a3a;
      }

      .st34 {
        fill: #101e1a;
      }

      .st35 {
        fill: #1d5242;
      }

      .st36 {
        display: none;
      }

      .st37 {
        fill: #1a4a38;
      }

      .st38 {
        fill: #55e888;
      }

      .st39 {
        fill: #122416;
      }

      .st40 {
        fill: #041210;
      }

      .st41 {
        fill: #28c494;
      }

      .st42 {
        fill: #1ddc9e;
      }

      .st43 {
        fill: #0a1a18;
      }

      .st44 {
        fill: #020c0a;
      }

      .st45 {
        fill: #7aeea0;
      }

      .st46 {
        fill: #90f0a8;
      }

      .st47 {
        fill: #35e87e;
      }

      .st48 {
        fill: #60e890;
      }

      .st49 {
        fill: #0f2318;
      }

      .st50 {
        fill: #50e882;
      }

      .st51 {
        fill: #0e2018;
      }

      .st52 {
        fill: #1e5c44;
      }

      .st53 {
        fill: #102218;
      }

      .st54 {
        fill: #142820;
      }

      .st55 {
        fill: #aaf0b8;
      }

      .st56 {
        fill: #28d898;
      }

      .st57 {
        fill: #2e8a6a;
      }

      .st58 {
        fill: #121e14;
      }
    </style>
  </defs>
  <g id="Layer_1">
    <g>
      <g>
        <path class="st18" d="M391.4,198c-2.5,5.1-7.2,10.1-11.2,7.5-1.2,4.8-4,9.6-8.5,14.4,7.3,41.9-27.3,59.3-59.9,74.2-27,12.1-38.3,37.4-36.1,65.9l3.3,2.3c1.8,8.9,5.4,17.3,10.7,25.1l-1.6,3.8c-.4,1.6,0,2.6,1.6,3.1,3.8-3,7.7,2.5,4.7,6.2,2.3,4.2-8.9,11.1-12.5,7.8-1.3.4-2.5.3-3.5-.7-1.6-5.3-9.2-29.1-13.9-30.3-1.5-.4-28.9,2.5-30,3.4.2,7.7-1.7,12.2-5.7,13.5,2.8,6.8.2,21.2-8,21.2-5,5.6-8.6,12.6-10.7,20.9,2.7,5.4,4.1,11.9,4.3,19.4,8.7,21.1,20,41.3,33.9,60.5l3.9-.3c-.7-7.3,4-14.8,10.9-17.2,7.4.7,4.1,10.4-.2,14.2l-3.7,9.7c4.6,11.9,2.8,19.1-5.5,21.4-3.1,1.2-3.4-.3-2.1-3-2.6,9.6-7.5,18.9-14.7,27.9-7.1,10.3-4.6,19.4,1.2,29.7,1.3-.4,2.4-.3,3.4.5l8.5,12.7c3-5.7,6.3-9,9.9-10.1,1.3-4,2.9-5,4.7-3.1l2-2.6c2.3,1.5,4.9-.4,8-5.7,7.6-3,11-7,10.3-12l-.3-4.4,19.2-27.4,4.5-1c1.3-10,9.5-25.5,18.7-29.6-.8-2.9.3-6,3.3-9.2,35.1-29.1,43-62.8,28.3-104.6l2.7-3.2c-5.2-5.1-7-18.4-1.6-23.4.7-2.7,2.4-6.7,5.7-5,1.2.6,12.1,21.3,12.8,23.2l-1.4,3.7c17.7,45,13.6,85.8-11.4,127.7-2.1,8.2-5.6,14.5-10.4,19-9,2.6-5.9,30.9-14.8,25l-.8-7.8c-4-1.7-4.1-3,0-4.7,7.9-12.7,12.4-26.1,13.7-40.1-1.1,3.6-3,5-5.9,4.2l-1.2,6.8c-16.6,23.9-29.1,50.8-21.8,80.3l-2,5-10.9-31.2c-1.1-.5-2.5-1-2.9-.4-4.5,5.9-34.7,47.3-35.4,50.3,1.1,7.2,1.9,14.5,2.4,21.9l3.2,1.9c2.8,12,7.5,33.5-3.2,41.8-5.2,2.1-3.7,4.2-10.9,0-3.9-2.1-2.8-4.3,1.6-4.7.5-7.8-8-55.3-14.9-55-4.6.2-21.4,45.3-21,53.4l-6.2,6.2c-9.5-8-6-20.1-2.9-30.3,1.7-5.4,5.6-17.1,10.7-18.1-2.9-3.8,1.3-14.5,4.7-17.2-1.8-2.7-.2-7.2-1-9.4-1-2.7,4.3,7.3,1.4,10.7l-50.3-52.8-3.2-2.8c-.4-6.6-2.3-13.1-5.8-18.6-15.2-18.2-30-37-42.3-57.9-15.1-25.9-23.3-47.5-17.3-78.2-1.4-1.2-2.1-2.6-2.1-4.4l6.8-20.6c-3.7-4.7,7.7-25.7,14-21.8l3.4,3.1c.2,19.8-1.8,39.4-6,58.9-1.7,27.9,16.7,53,37,70.6l7.7,12.5,4.6,2.5c12.2,14.1,23.2,29.4,32.8,45.7l2.5.8c1.3-6.4,4.1-11.2,8.5-14.5l1.7-26.6c-2-16.6-11-30.8-27-42.6-9.7-10.1-13.4-23-13.7-36.9l-2.7-4.1c-.3-14.9,17.7-47,26.5-59.7l4.3-1.7c1.6-7,3.6-13.8,5.8-20.6l3.5-1.3c0-5.1,1.1-8.7,3.1-10.9,3.7-15.8,25.6-21,39.9-16.8,1.2-5.9,2.8-11.5,5.7-16.7,6.1-10.6,27.3-35,37.8-40.4,26.4-8,53-19.7,38.7-52.1,9.5-8-1-20-7.5-27l-.7-3.1c.4-5,14.3-15.1,17.2-10.6,8.9-1.6,10.7-9.5,24.6-12.3l6.8,26.3h0Z"/>
        <path class="st44" d="M117.3,174.8l11.5,4.8c6.4,1.6,22.8,8.9,26.9,13.4,1.7.5,2.9-.3,3.8-2.1,42.5,8.3,76.6,19.5,78.1,70.5-1.9,3.3-2.2,7.5-.7,12.8l3.8,1.5,10.6,22.5,8.6-23.2,3.5-.8c1.9-19,6.2-52.7,23.1-64.8,11.5-8.2,37.7-14.7,51.7-16.9l4.8,2.1c6.4-1.2,15.5,20.1,15.7,22.7.3,4.6-4.7,6.6-4.6,7.9.4,5.3,5.4,7.2,4.1,18.1-3.6,30.8-36.3,29.1-51.8,40.3-1.9,1.4-27.7,32.8-29.6,35.9-2.8,4.7-4.3,13.1-5.7,18.5-15.3-6.7-32.1,0-42,12.6l-1.9-1.6c-.9-28.6-21.3-47.9-46.1-59.5l-2-4.4c-3.8,2.8-10.4-.1-14.6-2-32.8-14.9-33.4-33.5-33.4-65.3l2.7-2.9c-4.2-3.2-8.3-3.6-13.4-6.3-4-2.1-5.6-9.4-9.2-12.3l6.1-21.5h0Z"/>
        <path class="st38" d="M119.7,205.5l2.1,4.7c-2.5,10.5-4.8,21-5.2,31.8l-3.2,4.1c3.2,24.8,13.3,42.7,33.4,57.4,4.9,4.3,7.8,8.5,8.7,12.8,4.9,4.9,11.7,45.6,10,48.8-3.3,6.1-14.1-6.1-10-11.3l-4.7-1.6c-8.7-13.6-20.9-24.5-35.2-32-7,28.1-20.2,54-39.4,77.7-25.5,36.5-16.2,81-.8,120l-1.1,5.9c-33.6-47.2-44.3-97.2-24.6-153.3,8.5-24.1,33.2-56.2,37-79.2,2-1.1,3.7-1.6,5.1-1.7-3.2-26.1-1-46.7,8.9-70.9,2.3-5.6,9.2-20.6,15.6-17.8,1.7,1.5,2.4,4,3.1,4.7h0Z"/>
        <path class="st31" d="M378.7,322.5c1.1-.6,2.9-1.2,3.4-.4,20.2,29.8,40.4,62.2,56.6,94.4,14.4,44.5-3.8,86.5-28.8,122.9-17.8,24.6-42.3,48.4-43.7,81.1-4.7-1.7-7.2-14.6-7.8-18.7-11.2-26.4,5.3-57,19.2-79.3l4.2-1.8c2.2-5.3,8.6-1.3,8.6,4.2,26.7-37.2,32.2-85.4,7.9-125.1-12.1-18.9-21.8-38.8-29.3-59.6-3.5,10.2-5.5,20.8-5.9,31.6l-3.2,3.9c-.1,8.4.5,15.2,1.6,23.4l-3,1.9-13-7.2c-.1,4.3-1.6,6.6-4.3,6.9-3.2,0-4.2-3.7-3.1-10.9-4.9-17.7,1-35.4,13-49.3,6.2-7.2,18.3-19.4,27.6-17.7h0Z"/>
        <path class="st56" d="M155.6,353.8c2.1,5-16.8,11.2-19.4,9.7l-5.6-14.4c-25.4,36.4-48.3,82.8-41.9,128.5,4.6,32.8,20.3,54.6,39.3,80.1,9,12.1,12.5,26,11.9,41,2.3,2,2.3,5.6,0,10.9-1.9,3.8-2.4,8.2-4.7,10.9-5.4-41.6-38.7-65.6-60.9-96.7-10.3-26.5-19.2-54.2-17-83.3,3.9-49.8,52.8-74,54.4-125.8,19.9,9.9,32.1,20.5,43.7,39h0Z"/>
        <path class="st45" d="M358.4,189.9c-6.1,1.1-10.6,3.5-15.6,4.7-70.8,16.1-61.1,14.9-79.6,79.6-3-.6-4.2-3.3-3.8-8.3-7,7-13.5,7.6-19.4,1.9.4,3.6-.8,5.7-3.4,6.4-3.3-11.1-2.8-24.9-6.7-36.2-12.7-37.2-43.5-34.8-74.5-44.9v-2.3c-16.1-8.6-30.5-19.4-43-32.5l.9-4.2,5.3.6c20.8,17.2,46.8,25,72.3,32,6.7,2.5,13,5.8,19.1,9.5,3.2-3.2,5.6-1.3,4.7,3.1l5.3.8c12.5,15.2,22.8,31.9,31,50.1,6.4-16.8,15-32.4,25.7-46.7l5.2-1.1.8-4.7c17.4-14,38-22.7,61.8-26.2,40.4-8.3,55.3-48.6,61.8-85l3.6-2.7c6.3,45.3-7.9,87.1-51.5,106.1h0Z"/>
        <path class="st33" d="M405.2,296l3.3,2.8c8,28.4,21.2,54.8,39.6,79.2l8.5,19.4c11.1,70-10.1,91.2-46.8,142,6.8-19.1,18.7-32.3,24.5-52.7,8.6-30.1,9.7-59.5-7.1-87.2l-48.6-77c-.8-1-1.8-2.5-1.2-3.2,2.2-2.7,22.4-23.5,24-24,1.3-.4,2.6,0,3.8.6h0Z"/>
        <path class="st50" d="M409.9,83.8c-4.9,30.3-17.7,71.5-48.4,85-27.9,12.2-56.3,9.4-79.5,33.6-5.7,0-6.1-12.2.2-13.1.8-1.6-5.1-7.3-7.6-5.5-3.1,4.3-9.2,11.5-14.5,9.3-1.4-3.3,3-15.3,7.8-12.5,10.5-13.5,24.1-23.5,40.4-28.9l43-15.8c13.9-5.3,25.7-14.4,33.7-27.1,9.2-11.9,16.6-28.7,18.7-43.7,3.6,4.4,5.4,13.2,6.2,18.7h0Z"/>
        <path class="st0" d="M399,210.2c1,1.4,1.3,3-.4,3.5,11.3,18.2,12.1,37.3,11.9,57.9,0,1.8-.1,3.2-2.1,4.1,1.6,6.8,1.5,11.9,0,18.7l-3.1,1.5-26.5,26.5c-25.6,13.9-43.4,36.5-40.6,67.1-.4,17.3-5.4,2.6-6.2-9.6-1.3-18.7,2.6-45.6,10.9-62.2-1.1-.9-.6-2.5,1.6-4.7l.7-4.7,24.8-20.7c14.1-12.8,17.6-34.3,16.7-52.7-5.3-6.9-8.1-21.2-6.2-29.6,1.9-1.7,5.1-5.5,6.2-6.2,1.4-.9,3.3-3.3,4.7-2.4,2.1,1,6.2,10.9,7.8,13.3h0Z"/>
        <path class="st29" d="M314.7,136.9l-1.7,3.8c-22.1,6.1-43.8,14.6-48.6,39.5-3.4,6.7-6.5,13.6-9,20.7,3.3,4.1-1.4,15.1-7,14.5-2.9-.3-13.8-22.1-10.2-25.4,3.8-15.8-12.6-29.9-25.1-37.8l-26.9-11.1-1-4.1c46.8-15.2,82.9-16.1,129.5,0h0Z"/>
        <path class="st6" d="M133.7,214.9c4.6,27.2-7.5,38.9,22,59.9,9.1,6.5,14.6,6.3,23.3,10.3,1.7,2.8-.4,6.1-6.1,10.1l35.9,25.5c13.1,11.4,22.3,22.4,17,40.8-2.7,11.5-4.9,12.6-9.4,21.8l-2.8-4.2c1.9-41.6-30.3-64.7-63-82.8l-7.5-8.1-4.2-.2c-11.8-11.3-24.7-24.7-25.4-41.9,0-14.9,2.9-26.4,6.2-40.6,3.6,3.2,9.8,6.8,14,9.4h0Z"/>
        <path class="st26" d="M99.4,77.6c4.9,13.9,12.8,27.5,21.8,39,10.6,13.3,26,20.2,41.7,25.7l2,4-1.8,3.2c-20.5,2.4-19.4,18.8-.5,23.6,17.3,3.1,32.9,9.3,46.8,18.6l.7,4.5c-33.3-15-69-15.9-96.7-42.1-11.3-5.4-16.4-25.3-18.8-37.6-1.6-8.1-4.3-36.1.6-41.3,1-1.1,3.8.6,4.1,2.5h0Z"/>
        <path class="st7" d="M118.1,422.4c-4.2,24.8.5,49.8,9.2,73l-1.4,5c20,51.5,43.5,51.4,14,109.2.3-3.6-.4-7.4,0-10.9-.6-19.8-5.5-39.4-12.8-57.7-25-45.6-38.8-91.5-9.7-140.2l5.3-3.4c-.9,8.5-3.4,16.5-4.7,25h0Z"/>
        <path class="st43" d="M381.8,520.7c-13.7,32.8-29,39.7-23.4,81.1-10.4-17.8-8.8-39-3.1-57.7,12-39.7,34.2-56,29.6-105.3-1.3-14.1-11.1-29.4-7.8-41.4l5.3,2.8c25.5,38.6,23.4,76.2,4.2,116.9l-4.8,3.5h0Z"/>
        <path class="st23" d="M275.7,653.3l-1.5-14.6c2-6.5,22.8-31,29.3-33.2,5.4-1.8,6.7-2,8.1,4.1,1.5,15.1,7.7,27,3.9,43.7-2.1,9.6-30.7,39.9-39.8,43.7,7.8-14.5.2-30.5,0-43.7h0Z"/>
        <path class="st53" d="M186.8,580c.3,24.6-17.8,53.6-9.4,79.6-6.7-1.7-10.6-16.4-11.3-23.3-.6-6.4.5-23.7,1.9-30.2l3.2-2.7-1.4-21.6-3.2-.8-3.2-19.7-37.5-60.9c-12.1-31.1-12.7-44.8-7.8-78-6.1,43.5,18.4,74.5,40.8,108.2,11.1,16.6,27.5,23.7,27.8,49.4h0Z"/>
        <path class="st8" d="M232,648.7c-5.3,16.1-15.9,28.2-7.8,48.4-3,.5-23.1-20-25.8-23.4-23-29.6-13.1-33.1-7-65.5,1.5-3.7,3.1-5.8,6.6-2.7,8.8,16,19.9,29.2,33.2,39.6l.8,3.7h0Z"/>
        <path class="st57" d="M266.3,692.3c-.3,1.8-1.2,3.2-1.6,4.7-2.6,11.4-6.2,22.7-14.8,31.2-6.1-9-19.1-26.6-17.9-37.4-3.1-6.8,10.2-38.1,16.4-38.5.8,0,1.6,0,2.4.3,3.3.7,17,33.7,15.6,39.8Z"/>
        <path class="st54" d="M339.7,551.9c3.2.4,1.7,2.6,0,4.7-.2,1.5.1,3.2,0,4.7-3.9,41.4,26.2,80.5-21.8,110.8,8.5-14.8,10.3-28.5,10.9-45.3-5.2-17.4-7.8-61.9,4-75.9,3.8-4.5,8.6-5.6,6.9,1h0Z"/>
        <path class="st12" d="M411.5,282c11.8,26,41.3,90.4,45.3,115.5l-38.3-60.8c-5-13-12.6-26.3-13.2-40.6-.3-6.5,3.2-15.6,3.1-20.3,1.8,1.2,2.9,3.2,3.1,6.2h0Z"/>
        <path class="st55" d="M99.4,77.6l-4.7.8c.7,28.3,2.2,51.3,18.7,75.7,12.5,18.4,21.2,17.1,36.7,29.6.4.3,11.8,10.3,5.4,9.4-10.7-3.5-21.7-6-31.2-12.5-34.3-23.5-41.6-75.5-28.9-112.4l2.3-1.5c-.1,3.7.3,7.4,1.6,10.9h0Z"/>
        <path class="st19" d="M171.2,603.4c-1,29.2-7.1,27.7,6.2,56.2.9,1.9,3.5,7.4,2.3,9.3-44.3-30.6-24.3-49.9-16.4-87.4.3-4.9,6.8-4.5,7.6-.5l.3,22.4h0Z"/>
        <path class="st34" d="M236.7,631.5c1.6,6.9-3,12.1-4.7,17.2-15.2-5.2-26.7-28.5-36.8-42l-3.8,1.5c1.4-7.6,1-15.8,2.3-23.4l42.9,46.8Z"/>
        <path class="st58" d="M266.3,692.3l-16.4-37.4c-4.7-.8-17.5,32-17.9,35.9h-1.6c-2.4-21.5,9.6-41.9,21.1-59.3,13.3,18.8,18.4,37.9,14.8,60.8h0Z"/>
        <path class="st49" d="M311.6,581.6c-.5,11.3-1.1,16.3,0,28.1-7-11.6-34.1,28.6-35,31.3-1.4,4.2-.9,8.2-.9,12.4l-6-22.2,40.3-57.3c2.7-.2,1.6,6,1.5,7.8h0Z"/>
        <path class="st46" d="M116.6,200.8c-4.9,3.9-7.9,9.7-10.7,15-15.1,28.5-13.7,52.9-9.6,81.7l-9.4-6.2c5.4-32.4-6.6-65.9,22.6-95.2,3-3.2,5.6,3.5,7,4.7h0Z"/>
        <path class="st32" d="M339.7,551.9c-1.7-3.9-4.1.2-5,2-12.2,25.7-4.9,47-5.9,72.9-3.3-2.5-5.2-10.1-6.2-14-9.7-36.9,4.2-62.9,25-92.1l3.6.7c3.9,5-5.7,27.8-11.4,30.5h0Z"/>
        <path class="st20" d="M325.6,141.6l-1.9,4.1c-21.5,7.1-41.9,16.1-55.8,34.9-2.9,4-6.7,7.4-7.8,12.5,3,3.3-.2,8.7-4.7,7.8,2.6-10,8.2-31.6,13.3-39,10.1-14.9,30.1-19.8,46-25,3.7,1.3,8.2,1.2,10.9,4.7h0Z"/>
        <path class="st24" d="M185.2,136.9c12.5,7.4,24.4,7.8,36.7,17.1,6.6,5,29.6,28.3,16.3,35.9-3.7,2.3-4.6.8-3.1-3.1-5.7-6.9-12-13.5-18.7-19.6v-3.8c-11.9-9-25.5-15.1-40.7-18.3l-1.5-3.6c3.2-2.3,7.3-3.5,10.9-4.7h0Z"/>
        <path class="st16" d="M267.9,180.6c20-27.4,27.9-27.6,57.7-39,25.4-9.7,40-7.9,59.3-32.8-23.1,43.7-85.4,35.3-117,71.8h0Z"/>
        <path class="st14" d="M174.3,141.6c14.8,5.7,31.7,7.7,42.1,21.8l-1.6,1.4c-15.2-6.6-31-11.7-47.3-15.3l-2.6-3.3c-21.2-7.1-30.1-12.3-43.7-29.6,15.2,16.6,34.7,17.9,53.1,25h0Z"/>
        <path class="st41" d="M399,210.2c15.4,23.9,16.5,43.5,12.5,71.8-.4-.8-4.6-2.5-3.1-6.2-.6-23.6-1.1-42.7-13.5-63.8l4.1-1.7h0Z"/>
        <path class="st2" d="M344.4,313.2c-9.7,8-17.4,16.9-23,26.8-.3,11-2,12.8-13,12.5-.1,12.4,4.8,24,10.8,34.7,32.2,41.9,38.2,81.3,7.3,126.4l.8,2.5c-6.6,9.2-11.9,20-18.7,29.6-6,2.4-8.2-8.3-1.6-8.6-1.2-.3-3-.8-3.1-1.8-.8-9.2-.8-25.8,0-35l3.1-2.2c-2.8-.5-4.9-2.3-6.2-5.5-3.8-2.1-2.7-4.5,1.6-4.7-1-4.6.5-9.8,4.6-15.5,2.3-9.7,3.9-19.6,4.8-29.7-4.6-.7-4.1-4.7,0-6.2-5-4.6-8.2-8.6-6.2-15.6-5.8-2-13.5-14.4-10.9-20.3-1.5-3.1-4.2-5.2-4.7-6.2-3.1.4-3.8-.9-1.6-3.1-5.5-11-11.9-18.3-12.5-31.2-4.1-22,9-34,25.6-45.4l47.1-26.5c18.4-10.8,35.8-26.4,35.1-49.4l3-3.5c4.7,48.2-10.1,50.4-42.1,78h0Z"/>
        <path class="st5" d="M216.4,383.4c-12,24.9-25.4,35.4-28.1,65.5,2.8,25.2,13,47.9,30.7,67.9,7.7,11.8,11.6,24,8.3,38.2-2.5,8-5.6,15.6-8.6,23.4-12.6-19.9-25.2-39.2-39.8-57.7-17.4-25.1-27.6-51.3-23.4-81.7l3.1-2.5c.1-9.9,4.4-17,10.4-24.6,35.8-35.6,48.2-87.1-13.8-99.3-5.5-2.8-15-18.7-12.2-24.4,36.2,21.6,78.2,45.9,73.3,95.2h0Z"/>
        <path class="st42" d="M155.6,316.3l4.7.5c13.9,14.9,29,33.7,23.7,55.3-2.5,10-10.4,26.5-20.6,28.5-1.2-.1-3-.5-3-1.4-.3-6.9,1.7-18.1,3-24.4-1.8.8-3.1-5.5-2-6.5.9,13.9.1,28.1-2.5,42.5,1.9,8.6,1.8,17.2-.2,25.6.3,15.2-2.4,21.4,1.4,38.4,3.8,17.1,14.9,29.6,18.9,45.8-7.5-9.5-20.7-18.7-28.7-29.8-37.4-51.8-7.7-66-13.4-115.3-4.3.1-9.7-21.9-9.1-23.9l2.9-2.6,7.1,12.5,17.8-7.8c2.3,3.7,4.7,9.4,7.8,11.7l-7.8-49.1h0Z"/>
        <path class="st25" d="M130.6,349.1c.4,8.4,5.3,18.7,6.2,26.5-6.2,4.1-10.5,15.2-14,21.8-54.1,99.5,25.4,121.8,17.2,201.3-1.7-35.1-32.6-56.1-45.5-87.9-24.7-60.5.3-111.9,32.3-163.2l3.8,1.5h0Z"/>
        <path class="st1" d="M342.8,317.9l-4.2,8c-14.5,15.8-16.5,36.5-9.3,56.2,1.1,3,5,13.4,6.1,14.9.3.4,4.6,3.3,5.8,3.6.9-3.5-.4-8,3.9-10.9l16.4,9.4c3.2,25.1,12.5,32.1,5.1,62.1-6.4,25.9-26,36.1-39.4,55-4.5.6-3.6-1.6-2.3-4.6,9.7-21.2,20.6-37.9,19.3-63-1.8-34-41.9-62.5-38.9-99.4h12.5c-2.4-20.4,14.4-25.4,26.5-35.9,0,1.7-1.3,3.3-1.6,4.7h0Z"/>
        <path class="st30" d="M360,375.6c.2-15,2.4-26.1,7.4-40.2l3.5-2c7.3,38,39.5,66.7,45.1,105.5,5.2,35.9-7.8,70-30.2,97.3l1.6-14.1-5.5-1.5c21.7-51.9,24.7-74.8-4.7-123.3-4.8-7.9-11.2-15.3-12.5-25l-4.7,3.1h0Z"/>
        <path class="st28" d="M282,408.4c1.4.4,1.4.9,0,1.6l.7,6.8c-1.1,7.6-10.1,43.2-13.3,48.3-.9,1.5-2.8,2.1-4.6,2.6,5.1,4.7-10.5,23.2-13.5,13.9,2.8-9.9,1.3-19.7-3-28.9-10.6-18.4-16.2-37.7-19.4-58.3,2-6.8,1.3-10,3.1-16.4l33.2-3.5c7.3,2.1,14.3,26.5,16.7,34h0Z"/>
        <path class="st15" d="M386.5,235.2c5.1,68.1-113.5,65.5-110.8,124.8-3.3-11.2-1.7-29.1,3.4-39.5,19.2-39.3,79.6-34.7,89.3-79.2,4.6-20.9-8.6-17.5,11.9-35.7,3.4,9.8,5.2,19.3,6.2,29.6h0Z"/>
        <path class="st22" d="M228.9,394.3c6.4,5.3,6.8,21.5,10.2,31.2,6.9,19.5,22.3,34.8,14.8,57.8,3.8-4.1,8.6-10.6,10.9-15.6,2.7-4,13.2,5.2,10.9,9.4,2.6,5.3-.8,9.8-6.2,10.9,2.6,4.5-.9,11-6.2,10.9-3.6,5.6-7.2,11.6-10.9,17.2-8.6-4.1-16.8-18.4-21.4-27.7-9.7-19.8-11.8-42.4-9.7-64.1-2.8,7.2-6.5,11.3-11.1,12.2.7-7.9,5-27.6,13.2-23.4,2.5-6,3.6-12.5,5.5-18.7h0Z"/>
        <path class="st44" d="M294.4,400.6c3.3,6.8,8.1,13.2,10.9,20.3-.8,6.1,1.3,11.3,6.2,15.6.4,1.8-.2,4.3,0,6.2-5,20.3-14.4,39-28.1,56.2,2.6,3.8-3.6,11-7.8,9.4-10.8,7.4-9.9,17.9-7.8,29.6,3.6,2.8,4.7,7.5,3.1,14-.4,2.8.7,5.4,3.1,7.8l3.4,1.5,4.4,17,3.2.2c10.6,8.5-15.7,12.1-11.7,23.4l-8.6-3.1-1.2-3.3c3.4-15.9-.5-32-11.6-48l1.9-3.3,6-10.5c-12.2-15.3,9.7-23.8,3.4-34.8,2.2-3.5,4.1-7.4,6.2-10.9,2.5-2.8,6-4.4,9.3-2.7.3-5.4.8-10.7,1.7-16-1.4-.5-1.4-1,0-1.6.6-2.5,2.9-3.1,7-1.9,3-5.8,7.4-37.8.8-43.3-5.7,1.8-7.2-7.7-6.2-12.5-.1-.5.1-1.1,0-1.6l12.5-7.8h0Z"/>
        <path class="st17" d="M300.7,492.6c3.6-1.6,6.2,2.3,6.2,5.5v39c0,3.5-2.9,2.8,1.6,8.6-7.2,10.2-15.4,24.1-23.4,32.8-2.3,2.5-2,7.1-6.2,6.2,1.2-9.2-3.7-16.1-4.7-25-4.6-1.8-5.7-4.5-1.6-7.8-7.7-20.3,10.7-44.1,23.9-58.6l4.1-.7h0Z"/>
        <path class="st4" d="M228.9,350.6c-.1,2.1-2.5,8.4-3.1,10.9,3.8-33.8-36.7-47.8-57.7-66.3l10.9-10.1c16.2,7.5,32.5,17.9,42.8,34.4,6.1,9.8,7.8,19.6,7.1,31.1h0Z"/>
        <path class="st37" d="M227.3,555c-.7-47.8-43.7-54.4-39-106.1,9.6,56,59.2,40.9,39,106.1Z"/>
        <path class="st52" d="M210.2,436.4l10.9-18,3.9,2.4c-5.2,36.5,4.1,67.1,27.3,95.1-.8,1.2-2.9,7-4.7,6.2-13-31.8-40.9-47.9-37.5-85.8h0Z"/>
        <path class="st3" d="M253.9,544.1c7.5,16.2,22.2,38.5,10.9,54.6-.7,1-3.6,2-4.7,3.1l-2.5-3.7c5.8-31.4-20.2-37.2-16.7-2.7l-2.6,3.3c-23.5-19.3,6.5-39.7,12.5-59.3,1.9-.3,2.3,3,3.1,4.7h0Z"/>
        <path class="st9" d="M260.1,601.8c-.2.9-8.4,16.8-10.9,15.6-1.5-5.7-9.9-13.5-11-18.7-7.8-39.3,30.4-42,21.8,3.1h0Z"/>
        <path class="st40" d="M339.7,556.6c.2-1.5-.3-3.3,0-4.7,1.8-9.2,13-20.1,7.8-31.2,2.1-3,3.7-8.7,7-9.3,8.3,4.3-7.6,42.9-14.8,45.2h0Z"/>
        <path class="st44" d="M288.2,391.2c.5,1,1,2.1,1.6,3.1l-4.7,6.2-1.6-8.6,4.7-.8Z"/>
        <path class="st13" d="M174.3,219.6l4.1,3.5c4.2,11.5,12.5,23.3,24.9,12.8l3.8.9c2.6,2.3,8.7,5.6,7.9,10-26,24.2-62.5,5.4-54-30.3,1.6-2.5,10.7,2.3,13.3,3.2h0Z"/>
        <path class="st48" d="M236.7,274.2v-12.5l11.7,8,14-9.6.8,14.1c-.8,2.8-11.6,33.4-13.2,32.8-1.9-11.9-10-21.6-13.3-32.8h0Z"/>
        <path class="st27" d="M207.1,236.7c-17.3,15.7-28.3-.3-32.8-17.2,9,2.9,25.7,11,32.8,17.2Z"/>
        <path class="st10" d="M143.1,288.2c5.6,7.2,5.2,16.2,13.2,21.9,21.4,2.8,44.9,16.8,46.1,41.4,1.9,37-32,53.2-43.7,84.9-.2-7.6-3.1-21.7-2.9-25.7.5-12.8,7.4-28.8,4.5-43l3.1,7v25.7c31.1-33.9,19.4-55.6-7.8-84.3-24.6-25.9-42.1-28.4-42.1-70.2,4.7,19.3,18.6,28.1,29.6,42.1h0Z"/>
        <path class="st35" d="M342.8,317.9c-4.9,26-10.6,53.1-6.2,79.6l1.5-7.8c.2,2,2.1,8.7,3.1,10.9-.3,1.3.2,3.2,0,4.7-24.7-23.5-26.9-65.5,1.6-87.4h0Z"/>
        <path class="st47" d="M235.2,186.8c1.1,1.1,1.9,1.4,3.1,3.1,2.8,3.8,9.5,23.3,11.7,23.4,2.3-3.9,3-8.6,5.5-12.5,1.8-2.7,2.3-4.8,4.7-7.8,2.4-3,10.4-7.1,12.5-11.6,6.8-4.2,11.4,4.6,15.5,9.3l-7.8,2.3,1.6,9.4c-14.5,15.1-21.8,36.1-30.4,54.6-12.2-20.1-18.9-41.2-36.7-57.7l-2.3-3c4.3-17.6,9.2-29.8,22.6-9.5h0Z"/>
        <path class="st11" d="M164.9,146.2c10.5.1,42.7,11.2,51.5,17.2,7.6,5.2,15,14.9,18.7,23.4-2.2-2.2-5.7-4.3-7.9-7l-6-.7-6.4,20.1c-1.3-1.2-3.3-2-4.7-3.1-23.5-18.8-32.4-12.7-54.6-22.6-19.6-8.8-10-27.5,9.3-27.3Z"/>
        <path class="st51" d="M302.2,487.9c-.6,1.1-.6,3.2-1.6,4.7-13.7,22.2-28.8,28-28.1,59.3-.4,1.4-1,1.3-1.6,0-.7-4.8-2.1-9.3-3.1-14-3.9-13.2-1.3-23.1,7.8-29.6,2-3.1,5.3-6.5,7.8-9.4l7.4-11.5c3-7,13.7-8,11.3.5h0Z"/>
        <path class="st18" d="M302.2,487.9c-5.3-9.2-14.5,6.2-18.7,10.9l28.1-56.2c2.8,24,1.5,25.3-9.4,45.3h0Z"/>
        <path class="st18" d="M311.6,436.4l-10.9-5.6,4.7-10c2,4.9,5.2,10.4,6.2,15.6h0Z"/>
        <path class="st39" d="M288.2,422.4c6.7,7.9,4.2,18.7,1.6,27.9-1.3,4.6-5.4,16-9.4,17.3,0,.5,0,1.1,0,1.6.6,6.1-1,8.8-4.7,7.8l-10.9-9.4c8.6-18.1,9.2-39.5,17.2-57.7,1,3.1,6,11.1,6.2,12.5h0Z"/>
        <path class="st18" d="M280.4,469.2c-.5,2.6,5.6,11.8-.2,18.5l-10.7.2c2.3-3.7,4.2-7.1,6.2-10.9,1.4-2.6,3.3-5.2,4.7-7.8h0Z"/>
        <path class="st18" d="M280.4,467.7c3.7-19.6,13.2-18.7,7.8-45.3l7.5,7.4-5.9,40.2-9.5-2.4Z"/>
        <path class="st18" d="M272.6,551.9c0,2.9,1.3,5.3,1.6,7.8l-12.5-2.4,9.3-5.4h1.6Z"/>
      </g>
      <g>
        <path class="st13" d="M298.6,235.2l-3.8.9c-2.6,2.3-8.7,5.6-7.9,10,26,24.2,62.5,5.4,54-30.3-1.6-2.5-10.7,2.3-13.3,3.2l-4.1,3.5"/>
        <path class="st27" d="M294.8,236.1c17.3,15.7,28.3-.3,32.8-17.2-9,2.9-25.7,11-32.8,17.2Z"/>
      </g>
    </g>
  </g>
</svg>